<mxfile host="app.diagrams.net" modified="2024-06-25T07:01:14.657Z" agent="Mozilla/5.0 (Macintosh; Intel Mac OS X 10_15_7) AppleWebKit/537.36 (KHTML, like Gecko) Chrome/126.0.0.0 Safari/537.36" version="24.6.1" etag="Gp6nXnggvy-uAmHnRHoz" type="github">
  <diagram name="Seite-1" id="eNLd_d-O17xnLB_DNiJp">
    <mxGraphModel>
      <root>
        <mxCell id="0" />
        <mxCell id="1" parent="0" />
      </root>
    </mxGraphModel>
  </diagram>
</mxfile>
